# xmcd CD database file
#
# Track frame offsets:
#	150
#	13370
#	33079
#	60757
#	91280
#	111180
#	141130
#	172161
#	192434
#	212740
#	227272
#	240693
#	259156
#	271973
#	293270
#	306413
#	324833
#
# Disc length: 4795 seconds
#
# Revision: 0
# Processed by: cddbd v1.5.2PL0 Copyright (c) Steve Scherf et al.
# Submitted via: jetAudio 7
#
DISCID=e612b911
DTITLE=Неизвестный исполнитель - Неизвест
DTITLE=ный альбом
DYEAR=1900
DGENRE=Неизвестный жанр
TTITLE0=Дорожка 1
TTITLE1=Дорожка 2
TTITLE2=Дорожка 3
TTITLE3=Дорожка 4
TTITLE4=Дорожка 5
TTITLE5=Дорожка 6
TTITLE6=Дорожка 7
TTITLE7=Дорожка 8
TTITLE8=Дорожка 9
TTITLE9=Дорожка 10
TTITLE10=Дорожка 11
TTITLE11=Дорожка 12
TTITLE12=Дорожка 13
TTITLE13=Дорожка 14
TTITLE14=Дорожка 15
TTITLE15=Дорожка 16
TTITLE16=Дорожка 17
EXTD=
EXTT0=
EXTT1=
EXTT2=
EXTT3=
EXTT4=
EXTT5=
EXTT6=
EXTT7=
EXTT8=
EXTT9=
EXTT10=
EXTT11=
EXTT12=
EXTT13=
EXTT14=
EXTT15=
EXTT16=
PLAYORDER=
